<?xml version="1.0" standalone="no"?>
<!DOCTYPE svg PUBLIC "-//W3C//DTD SVG 20010904//EN"
 "http://www.w3.org/TR/2001/REC-SVG-20010904/DTD/svg10.dtd">
<svg version="1.0" xmlns="http://www.w3.org/2000/svg"
 width="100.000000pt" height="96.000000pt" viewBox="0 0 100.000000 96.000000"
 preserveAspectRatio="xMidYMid meet">

<g transform="translate(0.000000,96.000000) scale(0.100000,-0.100000)"
fill="#000000" stroke="none">
<path d="M60 480 c0 -313 3 -480 10 -480 6 0 10 128 10 363 l0 362 108 108
107 107 115 0 115 0 103 -103 c56 -56 102 -108 102 -114 0 -7 -13 -19 -30 -28
-31 -16 -60 -61 -60 -92 0 -31 36 -79 69 -93 17 -7 31 -18 31 -26 0 -12 -46
-3 -162 32 -10 3 -18 12 -18 20 0 11 -4 10 -18 -3 -26 -25 -24 -43 2 -32 15 6
47 2 106 -14 l85 -24 3 -118 3 -119 -68 -68 c-56 -57 -72 -68 -93 -64 l-25 5
23 -11 c21 -11 29 -5 95 60 l72 72 75 -73 75 -72 -73 75 -72 75 0 116 0 115
89 42 c49 23 97 42 107 42 13 0 14 3 4 15 -7 8 -16 13 -20 10 -5 -3 -11 1 -13
7 -3 7 -6 3 -6 -10 -1 -18 -16 -29 -77 -57 -88 -40 -84 -39 -84 -21 0 7 14 19
31 26 34 14 69 63 69 95 0 32 -35 81 -69 95 l-31 12 0 124 0 124 -345 0 -345
0 0 -480z m220 457 c0 -1 -45 -47 -100 -102 l-100 -100 0 103 0 102 100 0 c55
0 100 -1 100 -3z m450 -92 c0 -52 -1 -95 -3 -95 -1 0 -45 43 -97 95 l-95 95
98 0 97 0 0 -95z m59 -160 c74 -38 58 -150 -24 -171 -52 -13 -116 38 -115 93
1 28 25 64 51 79 31 17 54 17 88 -1z"/>
<path d="M698 603 c7 -3 16 -2 19 1 4 3 -2 6 -13 5 -11 0 -14 -3 -6 -6z"/>
<path d="M768 603 c7 -3 16 -2 19 1 4 3 -2 6 -13 5 -11 0 -14 -3 -6 -6z"/>
<path d="M735 570 c-3 -5 -1 -10 4 -10 6 0 11 5 11 10 0 6 -2 10 -4 10 -3 0
-8 -4 -11 -10z"/>
</g>
</svg>
