 <svg version="1.0" xmlns="http://www.w3.org/2000/svg" width="700.000000pt" height="700.000000pt" viewBox="0 0 700.000000 700.000000" preserveAspectRatio="xMidYMid meet">
<metadata>
Created by potrace 1.12, written by Peter Selinger 2001-2015
</metadata>
<g transform="translate(0.000000,700.000000) scale(0.100000,-0.100000)" fill="#000000" stroke="none">
<path d="M427 6853 c-4 -3 -7 -1510 -7 -3348 0 -2585 -3 -3344 -12 -3353 -9
-9 -69 -12 -210 -12 l-198 0 0 -70 0 -70 3500 0 3500 0 0 70 0 70 -3201 0
c-2187 0 -3206 3 -3220 10 -19 11 -19 49 -19 2538 0 1390 4 2532 8 2539 4 6
20 16 35 22 19 7 27 18 27 35 0 18 7 25 30 29 19 4 34 17 44 36 9 16 25 32 36
36 11 4 27 19 35 35 8 16 24 31 35 35 11 4 27 20 35 36 9 16 22 29 31 29 8 0
24 16 35 35 11 19 29 37 40 40 10 4 26 20 34 36 9 16 22 29 31 29 8 0 24 16
35 35 11 19 29 37 40 40 10 4 26 20 34 36 9 16 22 29 31 29 8 0 24 16 35 35
12 19 27 35 35 35 8 0 24 16 35 35 11 19 29 37 40 40 10 4 26 19 34 35 8 16
24 31 35 35 11 4 27 20 35 36 9 16 22 29 31 29 8 0 24 16 35 35 11 19 29 37
40 40 10 4 26 20 34 36 9 16 22 29 31 29 8 0 24 16 35 35 11 19 29 37 40 40
10 4 26 20 34 36 9 16 22 29 31 29 8 0 24 16 35 35 12 19 27 35 35 35 8 0 24
16 35 35 12 19 27 35 35 35 8 0 24 15 34 33 11 19 31 39 45 45 16 8 28 23 31
42 5 23 12 30 30 30 17 0 28 8 35 27 6 15 16 31 22 35 16 10 1618 10 1634 0 6
-4 16 -20 22 -35 7 -19 18 -27 34 -27 17 0 25 -8 32 -32 6 -18 21 -38 34 -45
14 -6 31 -23 38 -37 7 -13 22 -27 32 -31 11 -3 29 -21 40 -40 11 -19 27 -35
35 -35 9 0 22 -13 31 -29 8 -16 24 -32 35 -36 11 -4 27 -19 35 -35 8 -16 24
-31 35 -35 11 -4 27 -19 35 -35 8 -16 24 -31 35 -35 11 -4 27 -19 35 -35 8
-16 24 -31 35 -35 11 -4 27 -19 35 -35 8 -16 24 -31 35 -35 11 -4 27 -19 35
-35 8 -16 24 -31 35 -35 11 -4 27 -19 35 -35 8 -16 24 -31 34 -35 11 -3 29
-21 40 -40 11 -19 27 -35 35 -35 9 0 22 -13 31 -29 8 -16 24 -32 35 -36 11 -4
27 -19 35 -35 8 -16 24 -31 35 -35 11 -4 27 -19 35 -35 8 -16 24 -31 35 -35
11 -4 27 -19 35 -35 8 -16 24 -31 35 -35 11 -4 27 -19 35 -35 8 -16 24 -31 35
-35 11 -4 27 -19 35 -35 8 -16 24 -31 35 -35 11 -4 27 -20 36 -36 10 -19 25
-32 44 -36 23 -4 30 -11 30 -29 0 -17 8 -28 27 -35 39 -14 43 -25 43 -104 0
-79 -5 -90 -42 -104 -19 -7 -28 -18 -30 -38 -3 -27 -5 -28 -58 -28 -67 0 -80
-7 -80 -47 l0 -31 -58 6 c-62 7 -82 -2 -82 -36 0 -11 -11 -22 -31 -29 -21 -7
-36 -22 -45 -44 -9 -22 -21 -34 -34 -34 -27 0 -34 -16 -34 -80 -1 -51 -3 -55
-26 -58 -38 -5 -44 -17 -44 -79 -1 -54 -3 -58 -26 -61 -14 -2 -29 -7 -33 -12
-11 -10 -11 -320 0 -330 4 -5 19 -10 33 -12 23 -3 25 -7 26 -61 0 -62 6 -74
44 -79 23 -3 25 -7 26 -58 0 -64 7 -80 34 -80 13 0 25 -12 34 -34 9 -22 24
-37 45 -44 21 -7 31 -18 31 -31 0 -29 27 -40 87 -34 l53 6 0 -31 c0 -39 11
-46 80 -46 51 -1 55 -3 58 -26 6 -41 20 -50 66 -44 83 12 76 95 76 -983 -1
-971 0 -983 35 -983 35 0 36 12 35 983 0 1077 -7 995 75 984 49 -7 65 4 65 46
l0 30 53 -6 c66 -6 87 4 87 45 l0 31 53 -6 c59 -6 87 5 87 33 0 13 12 25 34
34 22 9 37 24 44 45 7 21 18 31 31 31 28 0 35 16 35 80 1 51 3 55 26 58 38 5
45 18 45 80 0 53 2 57 25 60 14 2 29 8 34 12 11 11 10 320 -1 331 -4 4 -19 9
-33 11 -23 3 -25 7 -26 61 0 62 -6 74 -44 79 -23 3 -25 7 -25 58 0 63 -8 80
-36 80 -13 0 -24 10 -31 31 -7 21 -22 36 -44 45 -22 9 -34 21 -34 34 0 28 -18
35 -82 32 l-58 -3 0 30 c0 38 -12 45 -80 45 -51 1 -55 3 -58 26 -5 35 -27 49
-70 44 -72 -9 -66 -78 -72 878 l-5 863 -2406 3 c-1323 1 -2409 -1 -2412 -5z
m1523 -152 c18 -35 12 -51 -20 -51 -23 0 -33 -6 -40 -25 -5 -14 -21 -31 -36
-37 -14 -7 -32 -25 -40 -40 -8 -15 -21 -28 -30 -28 -8 0 -24 -16 -35 -35 -11
-19 -29 -37 -40 -40 -10 -4 -26 -19 -34 -35 -8 -16 -24 -31 -35 -35 -11 -4
-27 -19 -35 -35 -8 -16 -24 -31 -35 -35 -11 -4 -27 -19 -35 -35 -8 -16 -24
-31 -35 -35 -11 -4 -27 -19 -35 -35 -8 -16 -24 -31 -35 -35 -11 -4 -27 -19
-35 -35 -8 -16 -24 -31 -35 -35 -11 -4 -27 -19 -35 -35 -8 -16 -24 -31 -35
-35 -11 -4 -27 -19 -35 -35 -8 -16 -24 -31 -35 -35 -11 -4 -27 -20 -35 -36 -9
-16 -22 -29 -31 -29 -8 0 -24 -16 -35 -35 -11 -19 -29 -37 -40 -40 -10 -4 -26
-19 -34 -35 -8 -16 -24 -31 -35 -35 -11 -4 -27 -19 -35 -35 -8 -16 -24 -31
-35 -35 -11 -4 -27 -19 -35 -35 -8 -16 -24 -31 -35 -35 -11 -4 -27 -19 -35
-35 -8 -16 -24 -31 -35 -35 -11 -4 -27 -19 -35 -35 -8 -16 -24 -31 -35 -35
-11 -3 -26 -18 -33 -31 -7 -14 -24 -31 -38 -37 -15 -8 -25 -23 -27 -40 -4 -33
-22 -43 -51 -27 -21 11 -21 12 -21 690 0 636 1 680 18 689 11 7 251 10 689 11
655 0 673 -1 683 -19z m3141 9 c18 -10 19 -28 19 -655 0 -642 0 -644 -21 -655
-29 -16 -49 -5 -49 25 0 17 -8 29 -25 37 -14 6 -34 26 -45 45 -10 18 -26 33
-34 33 -9 0 -22 13 -31 29 -8 16 -24 32 -34 36 -11 3 -29 21 -40 40 -11 19
-27 35 -35 35 -9 0 -22 13 -31 29 -8 16 -24 32 -35 36 -11 4 -27 19 -35 35 -8
16 -24 31 -34 35 -11 3 -29 21 -40 40 -11 19 -27 35 -35 35 -8 0 -23 16 -35
35 -11 19 -27 35 -35 35 -9 0 -22 13 -31 29 -8 16 -24 32 -34 36 -11 3 -29 21
-40 40 -11 19 -27 35 -35 35 -9 0 -22 13 -31 29 -8 16 -24 32 -34 36 -11 3
-29 21 -40 40 -11 19 -27 35 -35 35 -9 0 -22 13 -31 29 -8 16 -24 32 -35 36
-11 4 -27 19 -35 35 -8 16 -24 31 -34 35 -11 3 -29 21 -40 40 -11 19 -27 35
-35 35 -8 0 -23 16 -35 35 -11 19 -27 35 -35 35 -9 0 -22 13 -30 28 -8 15 -26
33 -40 40 -15 6 -31 23 -36 37 -7 19 -17 25 -40 25 -32 0 -38 16 -20 51 10 18
28 19 646 19 419 0 642 -4 655 -10z m297 -1700 c6 -44 19 -50 83 -43 l59 6 0
-30 c0 -43 15 -52 74 -46 51 5 51 5 61 -28 8 -26 18 -36 44 -44 33 -10 33 -11
29 -57 -6 -54 5 -75 42 -80 23 -3 25 -7 26 -58 0 -68 7 -80 45 -80 l29 0 -2
-172 -3 -173 -25 -3 c-38 -5 -45 -18 -45 -80 0 -53 -2 -57 -25 -60 -37 -5 -45
-18 -45 -75 0 -46 -2 -52 -22 -55 -26 -4 -53 -37 -53 -66 0 -17 -5 -18 -52
-13 -61 8 -78 -3 -78 -46 l0 -30 -59 6 c-64 7 -77 1 -83 -43 l-3 -25 -170 0
-170 0 -3 25 c-5 39 -27 49 -88 43 l-54 -6 0 31 c0 39 -19 50 -79 44 -45 -4
-46 -3 -56 29 -8 26 -18 36 -44 44 -33 10 -33 11 -29 57 6 54 -5 75 -42 80
-23 3 -25 7 -26 61 0 62 -6 74 -44 79 l-25 3 0 170 0 170 25 3 c38 5 44 17 44
79 1 54 3 58 26 61 42 6 49 19 43 75 -5 52 -5 52 28 62 26 8 36 18 44 44 9 32
11 33 55 28 58 -7 80 5 80 45 l0 31 58 -6 c64 -7 82 2 82 38 0 12 3 25 7 29 4
3 81 5 172 4 l166 -3 3 -25z"></path>
<path d="M4839 4402 c-11 -7 -19 -19 -19 -26 0 -29 30 -39 115 -39 84 0 115
10 115 38 0 26 -31 37 -111 39 -53 1 -88 -4 -100 -12z"></path>
<path d="M5405 4411 l-80 -6 0 -30 0 -30 85 -6 c89 -5 130 6 130 36 0 13 -39
47 -50 43 -3 -1 -41 -4 -85 -7z"></path>
<path d="M5192 4198 c-5 -7 -12 -22 -16 -34 -3 -11 -21 -27 -39 -35 -70 -31
-29 -81 58 -70 l50 6 6 50 c9 71 -27 122 -59 83z"></path>
</g>
</svg>