 <svg version="1.0" xmlns="http://www.w3.org/2000/svg" width="700.000000pt" height="700.000000pt" viewBox="0 0 700.000000 700.000000" preserveAspectRatio="xMidYMid meet">
<metadata>
Created by potrace 1.12, written by Peter Selinger 2001-2015
</metadata>
<g transform="translate(0.000000,700.000000) scale(0.100000,-0.100000)" fill="#000000" stroke="none">
<path d="M427 6853 c-4 -3 -7 -1510 -7 -3348 0 -2585 -3 -3344 -12 -3353 -9
-9 -69 -12 -210 -12 l-198 0 0 -70 0 -70 3500 0 3500 0 0 70 0 70 -3201 0
c-2187 0 -3206 3 -3220 10 -19 11 -19 49 -19 2538 0 1390 4 2532 8 2539 4 6
20 16 35 22 19 7 27 18 27 35 0 18 7 25 30 29 19 4 34 17 44 36 9 16 25 32 36
36 11 4 27 19 35 35 8 16 24 31 35 35 11 4 27 20 35 36 9 16 22 29 31 29 8 0
24 16 35 35 11 19 29 37 40 40 10 4 26 20 34 36 9 16 22 29 31 29 8 0 24 16
35 35 11 19 29 37 40 40 10 4 26 20 34 36 9 16 22 29 31 29 8 0 24 16 35 35
12 19 27 35 35 35 8 0 24 16 35 35 11 19 29 37 40 40 10 4 26 19 34 35 8 16
24 31 35 35 11 4 27 20 35 36 9 16 22 29 31 29 8 0 24 16 35 35 11 19 29 37
40 40 10 4 26 20 34 36 9 16 22 29 31 29 8 0 24 16 35 35 11 19 29 37 40 40
10 4 26 20 34 36 9 16 22 29 31 29 8 0 24 16 35 35 12 19 27 35 35 35 8 0 24
16 35 35 12 19 27 35 35 35 8 0 24 15 34 33 11 19 31 39 45 45 16 8 28 23 31
42 5 23 12 30 30 30 17 0 28 8 35 27 6 15 16 31 22 35 16 10 1618 10 1634 0 6
-4 16 -20 22 -35 7 -19 18 -27 34 -27 17 0 25 -8 32 -32 6 -18 21 -38 34 -45
14 -6 31 -23 38 -37 7 -13 22 -27 32 -31 11 -3 29 -21 40 -40 11 -19 27 -35
35 -35 9 0 22 -13 31 -29 8 -16 24 -32 35 -36 11 -4 27 -19 35 -35 8 -16 24
-31 35 -35 11 -4 27 -19 35 -35 8 -16 24 -31 35 -35 11 -4 27 -19 35 -35 8
-16 24 -31 35 -35 11 -4 27 -19 35 -35 8 -16 24 -31 35 -35 11 -4 27 -19 35
-35 8 -16 24 -31 35 -35 11 -4 27 -19 35 -35 8 -16 24 -31 34 -35 11 -3 29
-21 40 -40 11 -19 27 -35 35 -35 9 0 22 -13 31 -29 8 -16 24 -32 35 -36 11 -4
27 -19 35 -35 8 -16 24 -31 35 -35 11 -4 27 -19 35 -35 8 -16 24 -31 35 -35
11 -4 27 -19 35 -35 8 -16 24 -31 35 -35 11 -4 27 -19 35 -35 8 -16 24 -31 35
-35 11 -4 27 -19 35 -35 8 -16 24 -31 34 -35 11 -3 29 -21 40 -40 15 -25 27
-35 46 -35 20 0 25 -5 25 -26 0 -19 7 -28 30 -36 37 -12 39 -23 43 -163 l2
-110 65 0 65 0 0 905 0 905 -2406 3 c-1323 1 -2409 -1 -2412 -5z m1523 -152
c18 -35 12 -51 -20 -51 -23 0 -33 -6 -40 -25 -5 -14 -21 -31 -36 -37 -14 -7
-32 -25 -40 -40 -8 -15 -21 -28 -30 -28 -8 0 -24 -16 -35 -35 -11 -19 -29 -37
-40 -40 -10 -4 -26 -19 -34 -35 -8 -16 -24 -31 -35 -35 -11 -4 -27 -19 -35
-35 -8 -16 -24 -31 -35 -35 -11 -4 -27 -19 -35 -35 -8 -16 -24 -31 -35 -35
-11 -4 -27 -19 -35 -35 -8 -16 -24 -31 -35 -35 -11 -4 -27 -19 -35 -35 -8 -16
-24 -31 -35 -35 -11 -4 -27 -19 -35 -35 -8 -16 -24 -31 -35 -35 -11 -4 -27
-19 -35 -35 -8 -16 -24 -31 -35 -35 -11 -4 -27 -20 -35 -36 -9 -16 -22 -29
-31 -29 -8 0 -24 -16 -35 -35 -11 -19 -29 -37 -40 -40 -10 -4 -26 -19 -34 -35
-8 -16 -24 -31 -35 -35 -11 -4 -27 -19 -35 -35 -8 -16 -24 -31 -35 -35 -11 -4
-27 -19 -35 -35 -8 -16 -24 -31 -35 -35 -11 -4 -27 -19 -35 -35 -8 -16 -24
-31 -35 -35 -11 -4 -27 -19 -35 -35 -8 -16 -24 -31 -35 -35 -11 -3 -26 -18
-33 -31 -7 -14 -24 -31 -38 -37 -15 -8 -25 -23 -27 -40 -4 -33 -22 -43 -51
-27 -21 11 -21 12 -21 690 0 636 1 680 18 689 11 7 251 10 689 11 655 0 673
-1 683 -19z m3141 9 c18 -10 19 -28 19 -655 0 -642 0 -644 -21 -655 -29 -16
-49 -5 -49 25 0 17 -8 29 -25 37 -14 6 -34 26 -45 45 -10 18 -26 33 -34 33 -9
0 -22 13 -31 29 -8 16 -24 32 -34 36 -11 3 -29 21 -40 40 -11 19 -27 35 -35
35 -9 0 -22 13 -31 29 -8 16 -24 32 -35 36 -11 4 -27 19 -35 35 -8 16 -24 31
-34 35 -11 3 -29 21 -40 40 -11 19 -27 35 -35 35 -8 0 -23 16 -35 35 -11 19
-27 35 -35 35 -9 0 -22 13 -31 29 -8 16 -24 32 -34 36 -11 3 -29 21 -40 40
-11 19 -27 35 -35 35 -9 0 -22 13 -31 29 -8 16 -24 32 -34 36 -11 3 -29 21
-40 40 -11 19 -27 35 -35 35 -9 0 -22 13 -31 29 -8 16 -24 32 -35 36 -11 4
-27 19 -35 35 -8 16 -24 31 -34 35 -11 3 -29 21 -40 40 -11 19 -27 35 -35 35
-8 0 -23 16 -35 35 -11 19 -27 35 -35 35 -9 0 -22 13 -30 28 -8 15 -26 33 -40
40 -15 6 -31 23 -36 37 -7 19 -17 25 -40 25 -32 0 -38 16 -20 51 10 18 28 19
646 19 419 0 642 -4 655 -10z"></path>
</g>
</svg>